<svg id="call" xmlns="http://www.w3.org/2000/svg" width="22.845" height="22.845" viewBox="0 0 22.845 22.845">
  <g id="Groupe_1263" data-name="Groupe 1263">
    <path id="Tracé_3385" data-name="Tracé 3385" d="M11.423,0A11.423,11.423,0,1,0,22.845,11.423,11.423,11.423,0,0,0,11.423,0Zm5.711,17.848A12.15,12.15,0,0,1,5,5.711.714.714,0,0,1,5.711,5H8.347a.714.714,0,0,1,.714.714,7.873,7.873,0,0,0,.8,3.491.715.715,0,0,1-.331.957l-1.065.514a10.032,10.032,0,0,0,3.708,3.708l.514-1.064a.715.715,0,0,1,.957-.331,7.887,7.887,0,0,0,3.491.8.714.714,0,0,1,.714.714v2.636h0A.714.714,0,0,1,17.134,17.848Z" fill="#fff"/>
  </g>
</svg>
