<svg id="copyright" xmlns="http://www.w3.org/2000/svg" width="24.5" height="24.5" viewBox="0 0 24.5 24.5">
  <path id="Tracé_3354" data-name="Tracé 3354" d="M12.25,0A12.25,12.25,0,1,0,24.5,12.25,12.264,12.264,0,0,0,12.25,0Zm0,21.939a9.689,9.689,0,1,1,9.689-9.689A9.7,9.7,0,0,1,12.25,21.939Z" fill="#6f5f51"/>
  <path id="Tracé_3355" data-name="Tracé 3355" d="M71.47,73.411a5.123,5.123,0,0,1-3.243,1.14,5.18,5.18,0,1,1,2.809-9.534,1.28,1.28,0,1,0,1.391-2.15,7.741,7.741,0,1,0,.647,12.539,1.28,1.28,0,1,0-1.6-2Z" transform="translate(-56.061 -57.121)" fill="#6f5f51"/>
</svg>
