<svg xmlns="http://www.w3.org/2000/svg" width="22.845" height="22.845" viewBox="0 0 22.845 22.845">
  <g id="Cupcake" transform="translate(18 18)">
    <path id="Tracé_3373" data-name="Tracé 3373" d="M-6.577-18A11.423,11.423,0,0,0-18-6.577,11.423,11.423,0,0,0-6.577,4.845,11.423,11.423,0,0,0,4.845-6.577,11.423,11.423,0,0,0-6.577-18ZM-10.155.595l-1.017-6.877h2.156L-7.931.588ZM-7.16.578-8.244-6.282h3.333L-5.994.578Zm4.16,0L-5.223.58l1.084-6.861h2.155Zm1.533-7.617h-10.22A1.66,1.66,0,0,1-13.345-8.7a1.66,1.66,0,0,1,1.658-1.658h.861a.381.381,0,0,0,.373-.3,3.974,3.974,0,0,1,3.876-3.09A3.975,3.975,0,0,1-2.7-10.66a.381.381,0,0,0,.373.3h.861A1.66,1.66,0,0,1,.191-8.7,1.66,1.66,0,0,1-1.468-7.044Z" fill="#fff"/>
  </g>
</svg>
