<svg xmlns="http://www.w3.org/2000/svg" width="22.845" height="22.845" viewBox="0 0 22.845 22.845">
  <g id="email" transform="translate(-0.001)">
    <g id="Groupe_1262" data-name="Groupe 1262" transform="translate(0.001)">
      <path id="Tracé_3384" data-name="Tracé 3384" d="M11.423,0A11.423,11.423,0,1,0,22.846,11.422,11.423,11.423,0,0,0,11.423,0Zm0,4.012,6.759,4.215H4.664Zm6.844,10.946h0a1.224,1.224,0,0,1-1.224,1.224H5.8a1.224,1.224,0,0,1-1.224-1.224V8.5A1.217,1.217,0,0,1,4.6,8.286l6.458,4.027.025.013.026.014a.678.678,0,0,0,.141.055l.015,0a.7.7,0,0,0,.159.02h0a.684.684,0,0,0,.159-.02l.015,0a.685.685,0,0,0,.141-.055l.026-.014.025-.013,6.458-4.027a1.216,1.216,0,0,1,.019.209v6.463Z" transform="translate(-0.001)" fill="#fff"/>
    </g>
  </g>
</svg>
