<svg xmlns="http://www.w3.org/2000/svg" width="121" height="121" viewBox="0 0 121 121">
  <g id="Facebook" transform="translate(0)">
    <path id="Exclusion_1" data-name="Exclusion 1" d="M60.5,121A60.5,60.5,0,0,1,17.721,17.722a60.5,60.5,0,1,1,85.558,85.555A60.09,60.09,0,0,1,60.5,121ZM48.557,62.868v39.547H64.915V62.868h10.8L77.14,48.981H64.915V40.8c0-3.512,2.656-3.784,3.47-3.784h8.787v-13.5L65.062,23.47c-5.969,0-10.442,1.965-13.295,5.841a18.349,18.349,0,0,0-3.21,10.665v8.993H40.78v13.9Z" transform="translate(0)" fill="#fff"/>
  </g>
</svg>
