<svg id="Instagram" xmlns="http://www.w3.org/2000/svg" width="121.876" height="121.876" viewBox="0 0 121.876 121.876">
  <path id="Tracé_3370" data-name="Tracé 3370" d="M70.6,23.88H34.274A10.527,10.527,0,0,0,23.759,34.4V70.72A10.528,10.528,0,0,0,34.274,81.236H70.6A10.529,10.529,0,0,0,81.115,70.72V34.4A10.527,10.527,0,0,0,70.6,23.88ZM52.436,71.439A18.881,18.881,0,1,1,71.318,52.557,18.9,18.9,0,0,1,52.436,71.439ZM71.925,37.581a4.467,4.467,0,1,1,4.467-4.467A4.473,4.473,0,0,1,71.925,37.581Z" transform="translate(8.502 8.545)" fill="#fff"/>
  <path id="Tracé_3371" data-name="Tracé 3371" d="M47.752,36.971a10.9,10.9,0,1,0,10.9,10.9A10.916,10.916,0,0,0,47.752,36.971Z" transform="translate(13.186 13.229)" fill="#fff"/>
  <path id="Tracé_3372" data-name="Tracé 3372" d="M60.938,0a60.938,60.938,0,1,0,60.938,60.938A60.94,60.94,0,0,0,60.938,0ZM97.594,79.265A18.513,18.513,0,0,1,79.1,97.758H42.776A18.514,18.514,0,0,1,24.282,79.265V42.94A18.515,18.515,0,0,1,42.776,24.446H79.1A18.514,18.514,0,0,1,97.594,42.94Z" fill="#fff"/>
</svg>
