<svg xmlns="http://www.w3.org/2000/svg" width="23.148" height="23.148" viewBox="0 0 23.148 23.148"><g transform="translate(0)"><circle cx="1.863" cy="1.863" r="1.863" transform="translate(9.744 6.668)" fill="#968b7f"/><path d="M11.575,0A11.574,11.574,0,1,0,23.149,11.574,11.574,11.574,0,0,0,11.575,0Zm-.024,5.3H11.6a3.609,3.609,0,0,1,3.537,3.593c0,2.385-2.548,4.8-3.561,5.665-.068-.058-.143-.123-.223-.195l0,0c-1.121-1-3.334-3.244-3.334-5.467A3.609,3.609,0,0,1,11.551,5.3Zm.074,12.621c-2.135,0-4.3-.612-4.3-1.782,0-.821,1.064-1.367,2.436-1.62.265.267.517.5.737.7-1.494.167-2.372.64-2.372.922,0,.346,1.327.982,3.495.982s3.5-.636,3.5-.982c0-.287-.915-.772-2.464-.93.222-.2.475-.436.743-.705,1.413.246,2.521.8,2.521,1.636C15.921,17.308,13.76,17.921,11.625,17.921Z" transform="translate(-0.001)" fill="#968b7f"/></g></svg>