<svg xmlns="http://www.w3.org/2000/svg" width="22.122" height="22.122" viewBox="0 0 22.122 22.122"><path d="M44.126,42.158H47.08v-4.38H44.126Z" transform="translate(-34.542 -29.789)" fill="#968b7f"/><path d="M44.126,30.527H47.08v-1.46H44.126Z" transform="translate(-34.542 -23.268)" fill="#968b7f"/><rect width="2.024" height="1.46" transform="translate(6.847 5.799)" fill="#968b7f"/><rect width="2.024" height="4.38" transform="translate(6.847 7.989)" fill="#968b7f"/><circle cx="0.73" cy="0.73" r="0.73" transform="translate(10.331 13.099)" fill="#968b7f"/><rect width="2.024" height="4.38" transform="translate(13.251 7.989)" fill="#968b7f"/><path d="M17.061,6A11.061,11.061,0,1,0,28.122,17.061,11.061,11.061,0,0,0,17.061,6Zm5.475,5.069h-.548V22.2a.547.547,0,0,1-.548.548h-.4v.7l.5,1.493h-1l-.332-1h-6.3l-.332,1h-1l.5-1.493v-.7h-.4a.547.547,0,0,1-.548-.548V11.068h-.548v-.411q1.095-.274,2.19-.436V9.609h2.737v-1.1h1.1v1.1h2.737v.613q1.095.164,2.19.436Z" transform="translate(-6 -6)" fill="#968b7f"/><rect width="2.024" height="1.46" transform="translate(13.251 5.799)" fill="#968b7f"/></svg>