<svg xmlns="http://www.w3.org/2000/svg" width="121.503" height="121.503" viewBox="0 0 121.503 121.503">
  <g id="Tripadvisor" transform="translate(-0.373 -2.373)">
    <path id="Tracé_3378" data-name="Tracé 3378" d="M68.665,46.07A7.386,7.386,0,1,0,76,53.455,7.414,7.414,0,0,0,68.665,46.07Zm0,11.125a3.744,3.744,0,1,1,3.727-3.733A3.731,3.731,0,0,1,68.665,57.195Z" transform="translate(15.251 13.568)" fill="#fff"/>
    <path id="Tracé_3379" data-name="Tracé 3379" d="M34.072,37.514a18.223,18.223,0,1,0,18.266,18.3A18.245,18.245,0,0,0,34.072,37.514Zm.293,29.318A11.3,11.3,0,1,1,45.125,55.515,11.323,11.323,0,0,1,34.366,66.832Z" transform="translate(4.227 11.488)" fill="#fff"/>
    <path id="Tracé_3380" data-name="Tracé 3380" d="M60.752,0A60.752,60.752,0,1,0,121.5,60.752,60.753,60.753,0,0,0,60.752,0ZM95.675,84.34a22.538,22.538,0,0,1-12.19,3.5,21.2,21.2,0,0,1-5.469-.7,22.971,22.971,0,0,1-11.231-6.625c-.41-.435-.794-.886-1.227-1.377l-4.9,7.3c-1.641-2.454-3.232-4.83-4.814-7.193-.109.056-.14.063-.163.081a.793.793,0,0,0-.094.1A22.714,22.714,0,0,1,41.4,87.458a22.156,22.156,0,0,1-9.452-.532A22.936,22.936,0,0,1,15.344,68.344a22.123,22.123,0,0,1,.41-9.052,23.047,23.047,0,0,1,3.564-7.738.893.893,0,0,0,.1-.665,25.578,25.578,0,0,0-3.209-6.907c-.347-.548-.762-1.057-1.146-1.585v-.184a1.787,1.787,0,0,0,.229.025q6.893,0,13.79,0a1.176,1.176,0,0,0,.6-.191A49.459,49.459,0,0,1,39.964,37.05a56.036,56.036,0,0,1,7.985-2.165,63.98,63.98,0,0,1,7.942-1.042,67.457,67.457,0,0,1,15.178.67,49.067,49.067,0,0,1,7.521,1.76,51.484,51.484,0,0,1,12.2,5.565,1.864,1.864,0,0,0,.935.27c4.491.02,8.983.012,13.474.017.362,0,.723.039,1.083.058,0,.087.012.124,0,.145-.209.321-.423.641-.631.963a27.643,27.643,0,0,0-3.6,7.484.868.868,0,0,0,.094.818A22.906,22.906,0,0,1,95.675,84.34Z" transform="translate(0.373 2.373)" fill="#fff"/>
    <path id="Tracé_3381" data-name="Tracé 3381" d="M31.668,46.07a7.387,7.387,0,1,0,7.463,7.359A7.432,7.432,0,0,0,31.668,46.07Zm.093,11.163a3.781,3.781,0,1,1-.01-7.562,3.781,3.781,0,1,1,.01,7.562Z" transform="translate(6.288 13.568)" fill="#fff"/>
    <path id="Tracé_3382" data-name="Tracé 3382" d="M70.393,37.571A18.241,18.241,0,1,0,89.027,55.792,18.206,18.206,0,0,0,70.393,37.571Zm.82,29.25a11.3,11.3,0,1,1,10.844-11.33A11.317,11.317,0,0,1,71.214,66.821Z" transform="translate(13.139 11.501)" fill="#fff"/>
    <path id="Tracé_3383" data-name="Tracé 3383" d="M60.441,40.654a23.111,23.111,0,0,1,14.3-6.06,51.933,51.933,0,0,0-20.329-4.236A56.314,56.314,0,0,0,31.24,34.493,23.275,23.275,0,0,1,53.167,54.386,23.2,23.2,0,0,1,60.441,40.654Z" transform="translate(7.964 9.747)" fill="#fff"/>
  </g>
</svg>
